{"uuid":"370c7f7c-54d4-4725-86ff-3ee798a485dc","number":5,"reserved":false,"createdAt":{"$$date":1748098456657},"updatedAt":{"$$date":1748098456824},"_id":"7yGwa8KjoExjBLBB","fieldname":"IVE%20I%20AM(4K).mp4","filename":"IVE I AM(4K).mp4","originalname":"IVE I AM(4K).mp4","mimetype":"video/mp4","size":353600115,"path":"C:\\Users\\jkjh8\\media\\370c7f7c-54d4-4725-86ff-3ee798a485dc\\IVE I AM(4K).mp4","metadata":{"streams":[{"index":0,"codec_name":"av1","codec_long_name":"Alliance for Open Media AV1","profile":"Main","codec_type":"video","codec_tag_string":"av01","codec_tag":"0x31307661","width":3840,"height":2160,"coded_width":3840,"coded_height":2160,"closed_captions":0,"film_grain":0,"has_b_frames":0,"sample_aspect_ratio":"N/A","display_aspect_ratio":"N/A","pix_fmt":"yuv420p","level":13,"color_range":"tv","color_space":"bt709","color_transfer":"bt709","color_primaries":"bt709","chroma_location":"unspecified","field_order":"unknown","refs":1,"id":"0x1","r_frame_rate":"60000/1001","avg_frame_rate":"124270000/2073071","time_base":"1/90000","start_pts":0,"start_time":0,"duration_ts":18657639,"duration":207.3071,"bit_rate":13504204,"max_bit_rate":"N/A","bits_per_raw_sample":"N/A","nb_frames":12427,"nb_read_frames":"N/A","nb_read_packets":"N/A","extradata_size":21,"tags":{"language":"und","handler_name":"VideoHandler","vendor_id":"[0][0][0][0]"},"disposition":{"default":1,"dub":0,"original":0,"comment":0,"lyrics":0,"karaoke":0,"forced":0,"hearing_impaired":0,"visual_impaired":0,"clean_effects":0,"attached_pic":0,"timed_thumbnails":0,"non_diegetic":0,"captions":0,"descriptions":0,"metadata":0,"dependent":0,"still_image":0,"multilayer":0}},{"index":1,"codec_name":"aac","codec_long_name":"AAC (Advanced Audio Coding)","profile":"LC","codec_type":"audio","codec_tag_string":"mp4a","codec_tag":"0x6134706d","sample_fmt":"fltp","sample_rate":44100,"channels":2,"channel_layout":"stereo","bits_per_sample":0,"initial_padding":0,"id":"0x2","r_frame_rate":"0/0","avg_frame_rate":"0/0","time_base":"1/44100","start_pts":0,"start_time":0,"duration_ts":9145344,"duration":207.377415,"bit_rate":128003,"max_bit_rate":"N/A","bits_per_raw_sample":"N/A","nb_frames":8931,"nb_read_frames":"N/A","nb_read_packets":"N/A","extradata_size":16,"tags":{"language":"und","handler_name":"SoundHandler","vendor_id":"[0][0][0][0]"},"disposition":{"default":1,"dub":0,"original":0,"comment":0,"lyrics":0,"karaoke":0,"forced":0,"hearing_impaired":0,"visual_impaired":0,"clean_effects":0,"attached_pic":0,"timed_thumbnails":0,"non_diegetic":0,"captions":0,"descriptions":0,"metadata":0,"dependent":0,"still_image":0,"multilayer":0}}],"format":{"filename":"C:\\Users\\jkjh8\\AppData\\Roaming\\vp_app\\tmp\\IVE I AM(4K).mp4","nb_streams":2,"nb_programs":0,"nb_stream_groups":0,"format_name":"mov,mp4,m4a,3gp,3g2,mj2","format_long_name":"QuickTime / MOV","start_time":0,"duration":207.377415,"size":353600115,"bit_rate":13640834,"probe_score":100,"tags":{"major_brand":"isom","minor_version":"512","compatible_brands":"isomiso2mp41","title":"[BE ORIGINAL] IVE(아이브) 'I AM' (4K)","encoder":"Lavf58.29.100"}},"chapters":[]},"thumbnail":"C:\\Users\\jkjh8\\media\\370c7f7c-54d4-4725-86ff-3ee798a485dc\\thumbnail-IVE I AM(4K).png"}
{"uuid":"ba92151e-0aaa-4811-b569-65dc4ee1a204","number":1,"reserved":false,"createdAt":{"$$date":1748098100446},"updatedAt":{"$$date":1748098100666},"_id":"MAtZidDiaSX6himx","fieldname":"NewJeans%20Super%20Shy%20Official%20MV.mp4","filename":"NewJeans Super Shy Official MV.mp4","originalname":"NewJeans Super Shy Official MV.mp4","mimetype":"video/mp4","size":332568259,"path":"C:\\Users\\jkjh8\\media\\ba92151e-0aaa-4811-b569-65dc4ee1a204\\NewJeans Super Shy Official MV.mp4","metadata":{"streams":[{"index":0,"codec_name":"av1","codec_long_name":"Alliance for Open Media AV1","profile":"Main","codec_type":"video","codec_tag_string":"av01","codec_tag":"0x31307661","width":3840,"height":2160,"coded_width":3840,"coded_height":2160,"closed_captions":0,"film_grain":0,"has_b_frames":0,"sample_aspect_ratio":"N/A","display_aspect_ratio":"N/A","pix_fmt":"yuv420p","level":12,"color_range":"tv","color_space":"bt709","color_transfer":"bt709","color_primaries":"bt709","chroma_location":"unspecified","field_order":"unknown","refs":1,"id":"0x1","r_frame_rate":"24000/1001","avg_frame_rate":"433350000/18070553","time_base":"1/90000","start_pts":0,"start_time":0,"duration_ts":18070553,"duration":200.783922,"bit_rate":13117246,"max_bit_rate":"N/A","bits_per_raw_sample":"N/A","nb_frames":4815,"nb_read_frames":"N/A","nb_read_packets":"N/A","extradata_size":21,"tags":{"language":"und","handler_name":"VideoHandler","vendor_id":"[0][0][0][0]"},"disposition":{"default":1,"dub":0,"original":0,"comment":0,"lyrics":0,"karaoke":0,"forced":0,"hearing_impaired":0,"visual_impaired":0,"clean_effects":0,"attached_pic":0,"timed_thumbnails":0,"non_diegetic":0,"captions":0,"descriptions":0,"metadata":0,"dependent":0,"still_image":0,"multilayer":0}},{"index":1,"codec_name":"aac","codec_long_name":"AAC (Advanced Audio Coding)","profile":"LC","codec_type":"audio","codec_tag_string":"mp4a","codec_tag":"0x6134706d","sample_fmt":"fltp","sample_rate":44100,"channels":2,"channel_layout":"stereo","bits_per_sample":0,"initial_padding":0,"id":"0x2","r_frame_rate":"0/0","avg_frame_rate":"0/0","time_base":"1/44100","start_pts":0,"start_time":0,"duration_ts":8858624,"duration":200.875828,"bit_rate":128015,"max_bit_rate":"N/A","bits_per_raw_sample":"N/A","nb_frames":8651,"nb_read_frames":"N/A","nb_read_packets":"N/A","extradata_size":16,"tags":{"language":"und","handler_name":"SoundHandler","vendor_id":"[0][0][0][0]"},"disposition":{"default":1,"dub":0,"original":0,"comment":0,"lyrics":0,"karaoke":0,"forced":0,"hearing_impaired":0,"visual_impaired":0,"clean_effects":0,"attached_pic":0,"timed_thumbnails":0,"non_diegetic":0,"captions":0,"descriptions":0,"metadata":0,"dependent":0,"still_image":0,"multilayer":0}}],"format":{"filename":"C:\\Users\\jkjh8\\AppData\\Roaming\\vp_app\\tmp\\NewJeans Super Shy Official MV.mp4","nb_streams":2,"nb_programs":0,"nb_stream_groups":0,"format_name":"mov,mp4,m4a,3gp,3g2,mj2","format_long_name":"QuickTime / MOV","start_time":0,"duration":200.875828,"size":332568259,"bit_rate":13244729,"probe_score":100,"tags":{"major_brand":"isom","minor_version":"512","compatible_brands":"isomiso2mp41","title":"NewJeans (뉴진스) 'Super Shy' Official MV","encoder":"Lavf58.29.100"}},"chapters":[]},"thumbnail":"C:\\Users\\jkjh8\\media\\ba92151e-0aaa-4811-b569-65dc4ee1a204\\thumbnail-NewJeans Super Shy Official MV.png"}
{"uuid":"c988b0f9-c17e-4a2b-8773-8c1d133f74cd","number":2,"reserved":false,"createdAt":{"$$date":1748098100547},"updatedAt":{"$$date":1748098100720},"_id":"Z1kdayPOTKYAueLJ","fieldname":"IVE%20I%20AM(4K).mp4","filename":"IVE I AM(4K).mp4","originalname":"IVE I AM(4K).mp4","mimetype":"video/mp4","size":353600115,"path":"C:\\Users\\jkjh8\\media\\c988b0f9-c17e-4a2b-8773-8c1d133f74cd\\IVE I AM(4K).mp4","metadata":{"streams":[{"index":0,"codec_name":"av1","codec_long_name":"Alliance for Open Media AV1","profile":"Main","codec_type":"video","codec_tag_string":"av01","codec_tag":"0x31307661","width":3840,"height":2160,"coded_width":3840,"coded_height":2160,"closed_captions":0,"film_grain":0,"has_b_frames":0,"sample_aspect_ratio":"N/A","display_aspect_ratio":"N/A","pix_fmt":"yuv420p","level":13,"color_range":"tv","color_space":"bt709","color_transfer":"bt709","color_primaries":"bt709","chroma_location":"unspecified","field_order":"unknown","refs":1,"id":"0x1","r_frame_rate":"60000/1001","avg_frame_rate":"124270000/2073071","time_base":"1/90000","start_pts":0,"start_time":0,"duration_ts":18657639,"duration":207.3071,"bit_rate":13504204,"max_bit_rate":"N/A","bits_per_raw_sample":"N/A","nb_frames":12427,"nb_read_frames":"N/A","nb_read_packets":"N/A","extradata_size":21,"tags":{"language":"und","handler_name":"VideoHandler","vendor_id":"[0][0][0][0]"},"disposition":{"default":1,"dub":0,"original":0,"comment":0,"lyrics":0,"karaoke":0,"forced":0,"hearing_impaired":0,"visual_impaired":0,"clean_effects":0,"attached_pic":0,"timed_thumbnails":0,"non_diegetic":0,"captions":0,"descriptions":0,"metadata":0,"dependent":0,"still_image":0,"multilayer":0}},{"index":1,"codec_name":"aac","codec_long_name":"AAC (Advanced Audio Coding)","profile":"LC","codec_type":"audio","codec_tag_string":"mp4a","codec_tag":"0x6134706d","sample_fmt":"fltp","sample_rate":44100,"channels":2,"channel_layout":"stereo","bits_per_sample":0,"initial_padding":0,"id":"0x2","r_frame_rate":"0/0","avg_frame_rate":"0/0","time_base":"1/44100","start_pts":0,"start_time":0,"duration_ts":9145344,"duration":207.377415,"bit_rate":128003,"max_bit_rate":"N/A","bits_per_raw_sample":"N/A","nb_frames":8931,"nb_read_frames":"N/A","nb_read_packets":"N/A","extradata_size":16,"tags":{"language":"und","handler_name":"SoundHandler","vendor_id":"[0][0][0][0]"},"disposition":{"default":1,"dub":0,"original":0,"comment":0,"lyrics":0,"karaoke":0,"forced":0,"hearing_impaired":0,"visual_impaired":0,"clean_effects":0,"attached_pic":0,"timed_thumbnails":0,"non_diegetic":0,"captions":0,"descriptions":0,"metadata":0,"dependent":0,"still_image":0,"multilayer":0}}],"format":{"filename":"C:\\Users\\jkjh8\\AppData\\Roaming\\vp_app\\tmp\\IVE I AM(4K).mp4","nb_streams":2,"nb_programs":0,"nb_stream_groups":0,"format_name":"mov,mp4,m4a,3gp,3g2,mj2","format_long_name":"QuickTime / MOV","start_time":0,"duration":207.377415,"size":353600115,"bit_rate":13640834,"probe_score":100,"tags":{"major_brand":"isom","minor_version":"512","compatible_brands":"isomiso2mp41","title":"[BE ORIGINAL] IVE(아이브) 'I AM' (4K)","encoder":"Lavf58.29.100"}},"chapters":[]},"thumbnail":"C:\\Users\\jkjh8\\media\\c988b0f9-c17e-4a2b-8773-8c1d133f74cd\\thumbnail-IVE I AM(4K).png"}
{"uuid":"cd4fa94e-145e-4944-a01a-eb93625784cb","number":4,"reserved":false,"createdAt":{"$$date":1748098341532},"updatedAt":{"$$date":1748098341679},"_id":"iVoXPJiio5bwEDEH","fieldname":"NewJeans%20Super%20Shy%20Official%20MV.mp4","filename":"NewJeans Super Shy Official MV.mp4","originalname":"NewJeans Super Shy Official MV.mp4","mimetype":"video/mp4","size":332568259,"path":"C:\\Users\\jkjh8\\media\\cd4fa94e-145e-4944-a01a-eb93625784cb\\NewJeans Super Shy Official MV.mp4","metadata":{"streams":[{"index":0,"codec_name":"av1","codec_long_name":"Alliance for Open Media AV1","profile":"Main","codec_type":"video","codec_tag_string":"av01","codec_tag":"0x31307661","width":3840,"height":2160,"coded_width":3840,"coded_height":2160,"closed_captions":0,"film_grain":0,"has_b_frames":0,"sample_aspect_ratio":"N/A","display_aspect_ratio":"N/A","pix_fmt":"yuv420p","level":12,"color_range":"tv","color_space":"bt709","color_transfer":"bt709","color_primaries":"bt709","chroma_location":"unspecified","field_order":"unknown","refs":1,"id":"0x1","r_frame_rate":"24000/1001","avg_frame_rate":"433350000/18070553","time_base":"1/90000","start_pts":0,"start_time":0,"duration_ts":18070553,"duration":200.783922,"bit_rate":13117246,"max_bit_rate":"N/A","bits_per_raw_sample":"N/A","nb_frames":4815,"nb_read_frames":"N/A","nb_read_packets":"N/A","extradata_size":21,"tags":{"language":"und","handler_name":"VideoHandler","vendor_id":"[0][0][0][0]"},"disposition":{"default":1,"dub":0,"original":0,"comment":0,"lyrics":0,"karaoke":0,"forced":0,"hearing_impaired":0,"visual_impaired":0,"clean_effects":0,"attached_pic":0,"timed_thumbnails":0,"non_diegetic":0,"captions":0,"descriptions":0,"metadata":0,"dependent":0,"still_image":0,"multilayer":0}},{"index":1,"codec_name":"aac","codec_long_name":"AAC (Advanced Audio Coding)","profile":"LC","codec_type":"audio","codec_tag_string":"mp4a","codec_tag":"0x6134706d","sample_fmt":"fltp","sample_rate":44100,"channels":2,"channel_layout":"stereo","bits_per_sample":0,"initial_padding":0,"id":"0x2","r_frame_rate":"0/0","avg_frame_rate":"0/0","time_base":"1/44100","start_pts":0,"start_time":0,"duration_ts":8858624,"duration":200.875828,"bit_rate":128015,"max_bit_rate":"N/A","bits_per_raw_sample":"N/A","nb_frames":8651,"nb_read_frames":"N/A","nb_read_packets":"N/A","extradata_size":16,"tags":{"language":"und","handler_name":"SoundHandler","vendor_id":"[0][0][0][0]"},"disposition":{"default":1,"dub":0,"original":0,"comment":0,"lyrics":0,"karaoke":0,"forced":0,"hearing_impaired":0,"visual_impaired":0,"clean_effects":0,"attached_pic":0,"timed_thumbnails":0,"non_diegetic":0,"captions":0,"descriptions":0,"metadata":0,"dependent":0,"still_image":0,"multilayer":0}}],"format":{"filename":"C:\\Users\\jkjh8\\AppData\\Roaming\\vp_app\\tmp\\NewJeans Super Shy Official MV.mp4","nb_streams":2,"nb_programs":0,"nb_stream_groups":0,"format_name":"mov,mp4,m4a,3gp,3g2,mj2","format_long_name":"QuickTime / MOV","start_time":0,"duration":200.875828,"size":332568259,"bit_rate":13244729,"probe_score":100,"tags":{"major_brand":"isom","minor_version":"512","compatible_brands":"isomiso2mp41","title":"NewJeans (뉴진스) 'Super Shy' Official MV","encoder":"Lavf58.29.100"}},"chapters":[]},"thumbnail":"C:\\Users\\jkjh8\\media\\cd4fa94e-145e-4944-a01a-eb93625784cb\\thumbnail-NewJeans Super Shy Official MV.png"}
{"uuid":"91f82b61-2208-47ad-9408-b9c341efa738","number":3,"reserved":false,"createdAt":{"$$date":1748098306509},"updatedAt":{"$$date":1748098306706},"_id":"p16byp2xtQe4xZAD","fieldname":"QLED%208K%20Unrivaled%20realism%20in%20real%208K%20%20%20Samsung.mp4","filename":"QLED 8K Unrivaled realism in real 8K   Samsung.mp4","originalname":"QLED 8K Unrivaled realism in real 8K   Samsung.mp4","mimetype":"video/mp4","size":476017702,"path":"C:\\Users\\jkjh8\\media\\91f82b61-2208-47ad-9408-b9c341efa738\\QLED 8K Unrivaled realism in real 8K   Samsung.mp4","metadata":{"streams":[{"index":0,"codec_name":"av1","codec_long_name":"Alliance for Open Media AV1","profile":"Main","codec_type":"video","codec_tag_string":"av01","codec_tag":"0x31307661","width":7680,"height":4320,"coded_width":7680,"coded_height":4320,"closed_captions":0,"film_grain":0,"has_b_frames":0,"sample_aspect_ratio":"N/A","display_aspect_ratio":"N/A","pix_fmt":"yuv420p","level":16,"color_range":"tv","color_space":"bt709","color_transfer":"bt709","color_primaries":"bt709","chroma_location":"unspecified","field_order":"unknown","refs":1,"id":"0x1","r_frame_rate":"30000/1001","avg_frame_rate":"29500000/983983","time_base":"1/90000","start_pts":0,"start_time":0,"duration_ts":8855847,"duration":98.3983,"bit_rate":38566255,"max_bit_rate":"N/A","bits_per_raw_sample":"N/A","nb_frames":2950,"nb_read_frames":"N/A","nb_read_packets":"N/A","extradata_size":21,"tags":{"language":"und","handler_name":"VideoHandler","vendor_id":"[0][0][0][0]"},"disposition":{"default":1,"dub":0,"original":0,"comment":0,"lyrics":0,"karaoke":0,"forced":0,"hearing_impaired":0,"visual_impaired":0,"clean_effects":0,"attached_pic":0,"timed_thumbnails":0,"non_diegetic":0,"captions":0,"descriptions":0,"metadata":0,"dependent":0,"still_image":0,"multilayer":0}},{"index":1,"codec_name":"aac","codec_long_name":"AAC (Advanced Audio Coding)","profile":"LC","codec_type":"audio","codec_tag_string":"mp4a","codec_tag":"0x6134706d","sample_fmt":"fltp","sample_rate":44100,"channels":2,"channel_layout":"stereo","bits_per_sample":0,"initial_padding":0,"id":"0x2","r_frame_rate":"0/0","avg_frame_rate":"0/0","time_base":"1/44100","start_pts":0,"start_time":0,"duration_ts":4343808,"duration":98.499048,"bit_rate":127999,"max_bit_rate":"N/A","bits_per_raw_sample":"N/A","nb_frames":4242,"nb_read_frames":"N/A","nb_read_packets":"N/A","extradata_size":16,"tags":{"language":"und","handler_name":"SoundHandler","vendor_id":"[0][0][0][0]"},"disposition":{"default":1,"dub":0,"original":0,"comment":0,"lyrics":0,"karaoke":0,"forced":0,"hearing_impaired":0,"visual_impaired":0,"clean_effects":0,"attached_pic":0,"timed_thumbnails":0,"non_diegetic":0,"captions":0,"descriptions":0,"metadata":0,"dependent":0,"still_image":0,"multilayer":0}}],"format":{"filename":"C:\\Users\\jkjh8\\AppData\\Roaming\\vp_app\\tmp\\QLED 8K Unrivaled realism in real 8K   Samsung.mp4","nb_streams":2,"nb_programs":0,"nb_stream_groups":0,"format_name":"mov,mp4,m4a,3gp,3g2,mj2","format_long_name":"QuickTime / MOV","start_time":0,"duration":98.499048,"size":476017702,"bit_rate":38661709,"probe_score":100,"tags":{"major_brand":"isom","minor_version":"512","compatible_brands":"isomiso2mp41","title":"QLED 8K: Unrivaled realism in real 8K | Samsung","encoder":"Lavf58.29.100"}},"chapters":[]},"thumbnail":"C:\\Users\\jkjh8\\media\\91f82b61-2208-47ad-9408-b9c341efa738\\thumbnail-QLED 8K Unrivaled realism in real 8K   Samsung.png"}
{"uuid":"b650800a-a6ec-4dca-a874-1f3db0d9e26c","number":6,"reserved":true,"createdAt":{"$$date":1748098492504},"updatedAt":{"$$date":1748098492504},"_id":"LukbsGe3UUr4mNPB"}
{"uuid":"b650800a-a6ec-4dca-a874-1f3db0d9e26c","number":6,"reserved":false,"createdAt":{"$$date":1748098492504},"updatedAt":{"$$date":1748098492650},"_id":"LukbsGe3UUr4mNPB","fieldname":"IVE%20I%20AM(4K).mp4","filename":"IVE I AM(4K).mp4","originalname":"IVE I AM(4K).mp4","mimetype":"video/mp4","size":353600115,"path":"C:\\Users\\jkjh8\\media\\b650800a-a6ec-4dca-a874-1f3db0d9e26c\\IVE I AM(4K).mp4","metadata":{"streams":[{"index":0,"codec_name":"av1","codec_long_name":"Alliance for Open Media AV1","profile":"Main","codec_type":"video","codec_tag_string":"av01","codec_tag":"0x31307661","width":3840,"height":2160,"coded_width":3840,"coded_height":2160,"closed_captions":0,"film_grain":0,"has_b_frames":0,"sample_aspect_ratio":"N/A","display_aspect_ratio":"N/A","pix_fmt":"yuv420p","level":13,"color_range":"tv","color_space":"bt709","color_transfer":"bt709","color_primaries":"bt709","chroma_location":"unspecified","field_order":"unknown","refs":1,"id":"0x1","r_frame_rate":"60000/1001","avg_frame_rate":"124270000/2073071","time_base":"1/90000","start_pts":0,"start_time":0,"duration_ts":18657639,"duration":207.3071,"bit_rate":13504204,"max_bit_rate":"N/A","bits_per_raw_sample":"N/A","nb_frames":12427,"nb_read_frames":"N/A","nb_read_packets":"N/A","extradata_size":21,"tags":{"language":"und","handler_name":"VideoHandler","vendor_id":"[0][0][0][0]"},"disposition":{"default":1,"dub":0,"original":0,"comment":0,"lyrics":0,"karaoke":0,"forced":0,"hearing_impaired":0,"visual_impaired":0,"clean_effects":0,"attached_pic":0,"timed_thumbnails":0,"non_diegetic":0,"captions":0,"descriptions":0,"metadata":0,"dependent":0,"still_image":0,"multilayer":0}},{"index":1,"codec_name":"aac","codec_long_name":"AAC (Advanced Audio Coding)","profile":"LC","codec_type":"audio","codec_tag_string":"mp4a","codec_tag":"0x6134706d","sample_fmt":"fltp","sample_rate":44100,"channels":2,"channel_layout":"stereo","bits_per_sample":0,"initial_padding":0,"id":"0x2","r_frame_rate":"0/0","avg_frame_rate":"0/0","time_base":"1/44100","start_pts":0,"start_time":0,"duration_ts":9145344,"duration":207.377415,"bit_rate":128003,"max_bit_rate":"N/A","bits_per_raw_sample":"N/A","nb_frames":8931,"nb_read_frames":"N/A","nb_read_packets":"N/A","extradata_size":16,"tags":{"language":"und","handler_name":"SoundHandler","vendor_id":"[0][0][0][0]"},"disposition":{"default":1,"dub":0,"original":0,"comment":0,"lyrics":0,"karaoke":0,"forced":0,"hearing_impaired":0,"visual_impaired":0,"clean_effects":0,"attached_pic":0,"timed_thumbnails":0,"non_diegetic":0,"captions":0,"descriptions":0,"metadata":0,"dependent":0,"still_image":0,"multilayer":0}}],"format":{"filename":"C:\\Users\\jkjh8\\AppData\\Roaming\\vp_app\\tmp\\IVE I AM(4K).mp4","nb_streams":2,"nb_programs":0,"nb_stream_groups":0,"format_name":"mov,mp4,m4a,3gp,3g2,mj2","format_long_name":"QuickTime / MOV","start_time":0,"duration":207.377415,"size":353600115,"bit_rate":13640834,"probe_score":100,"tags":{"major_brand":"isom","minor_version":"512","compatible_brands":"isomiso2mp41","title":"[BE ORIGINAL] IVE(아이브) 'I AM' (4K)","encoder":"Lavf58.29.100"}},"chapters":[]},"thumbnail":"C:\\Users\\jkjh8\\media\\b650800a-a6ec-4dca-a874-1f3db0d9e26c\\thumbnail-IVE I AM(4K).png"}
